<svg xmlns="http://www.w3.org/2000/svg" width="640" height="50" viewBox="0 0 640 50">
  <style>
    @keyframes drift { 0% { transform: translateX(-6px); } 100% { transform: translateX(6px); } }
    .drift { animation: drift var(--ddur, 16s) ease-in-out infinite alternate; animation-delay: var(--ddelay, 0s); }
    @media (prefers-reduced-motion: reduce) { .drift { animation: none; } }
  </style>
  <path class="drift" style="--ddur:17.9s;--ddelay:-12.5s" d="M 15.2 21.2 L 14.6 24.7 L 10.7 26.1 L 7.3 23.4 L 7.6 19.2 L 10.8 17.1 L 14.3 18.1 Z" fill="rgba(89, 79, 108,0.76)"/>
  <path d="M 43.4 25.4 L 43.1 26.4 L 42.1 26.8 L 40.9 26.5 L 40.6 25.4 L 40.9 24.2 L 42.1 24.0 L 43.4 24.1 Z" fill="rgba(86, 79, 110,0.66)"/>
  <path d="M 87.2 33.9 L 86.4 34.9 L 85.2 34.9 L 84.4 34.4 L 83.9 33.1 L 85.1 32.3 L 86.2 32.9 Z" fill="rgba(113, 82, 88,0.76)"/>
  <path d="M 122.2 31.5 L 120.0 34.4 L 117.0 34.3 L 114.2 33.2 L 113.6 29.5 L 116.8 27.7 L 119.5 29.2 Z" fill="rgba(112, 82, 89,0.66)"/>
  <path class="drift" style="--ddur:20.4s;--ddelay:-11.0s" d="M 161.3 26.3 L 160.9 27.7 L 159.5 28.5 L 158.6 27.2 L 157.5 26.3 L 158.6 25.4 L 159.5 24.3 L 160.6 25.1 Z" fill="rgba(84, 79, 112,0.70)"/>
  <path d="M 194.0 27.2 L 193.1 28.8 L 191.5 29.8 L 190.1 28.5 L 189.1 27.2 L 190.1 25.7 L 191.5 25.3 L 193.0 25.7 Z" fill="rgba(65, 77, 128,0.66)"/>
  <path d="M 231.8 28.8 L 231.7 31.2 L 229.0 31.8 L 227.9 29.6 L 227.9 27.9 L 229.2 26.5 L 231.0 27.1 Z" fill="rgba(83, 79, 113,0.79)"/>
  <path d="M 269.7 33.0 L 268.9 34.0 L 267.6 34.2 L 266.9 33.0 L 267.5 31.4 L 269.3 31.4 Z" fill="rgba(84, 79, 112,0.76)"/>
  <path class="drift" style="--ddur:17.6s;--ddelay:-0.6s" d="M 297.9 18.7 L 296.9 20.4 L 295.1 20.4 L 293.2 20.6 L 293.6 18.7 L 293.6 17.2 L 295.1 17.0 L 296.4 17.4 Z" fill="rgba(67, 77, 126,0.57)"/>
  <path class="drift" style="--ddur:22.9s;--ddelay:-7.1s" d="M 334.5 30.7 L 332.4 32.9 L 329.9 34.1 L 327.0 32.5 L 327.1 29.0 L 330.1 28.1 L 332.7 28.2 Z" fill="rgba(119, 82, 84,0.80)"/>
  <path d="M 374.2 17.6 L 373.4 19.2 L 371.7 19.1 L 370.1 18.6 L 370.4 16.8 L 371.6 15.5 L 373.4 15.9 Z" fill="rgba(106, 81, 94,0.62)"/>
  <path class="drift" style="--ddur:14.3s;--ddelay:-12.9s" d="M 415.7 23.9 L 415.0 27.2 L 411.7 28.2 L 409.3 26.3 L 408.0 23.9 L 408.8 21.0 L 411.7 19.4 L 415.0 20.5 Z" fill="rgba(118, 82, 84,0.67)"/>
  <path class="drift" style="--ddur:17.8s;--ddelay:-13.2s" d="M 449.4 20.2 L 447.9 22.7 L 445.4 22.1 L 444.0 20.2 L 444.8 17.3 L 447.4 18.6 Z" fill="rgba(84, 79, 112,0.79)"/>
  <path d="M 488.2 18.8 L 485.8 21.6 L 482.7 21.4 L 480.0 18.8 L 482.1 15.2 L 485.6 16.5 Z" fill="rgba(101, 80, 98,0.78)"/>
  <path d="M 525.1 26.6 L 524.1 29.4 L 521.4 29.0 L 519.5 27.8 L 518.4 24.9 L 521.3 24.0 L 523.9 24.1 Z" fill="rgba(77, 78, 118,0.88)"/>
  <path class="drift" style="--ddur:17.7s;--ddelay:-2.0s" d="M 561.4 16.5 L 560.8 19.0 L 558.2 20.6 L 555.6 19.1 L 554.2 16.5 L 556.4 14.6 L 558.2 13.4 L 560.7 14.0 Z" fill="rgba(120, 82, 83,0.75)"/>
  <path class="drift" style="--ddur:17.0s;--ddelay:-15.4s" d="M 601.0 20.6 L 600.2 22.7 L 597.5 23.1 L 595.8 20.6 L 597.5 18.0 L 600.1 18.5 Z" fill="rgba(131, 84, 73,0.74)"/>
  <path d="M 629.5 17.9 L 628.7 19.1 L 627.4 19.4 L 626.1 18.7 L 626.0 17.0 L 627.3 16.1 L 629.4 15.8 Z" fill="rgba(87, 79, 110,0.82)"/>
</svg>
