<svg xmlns="http://www.w3.org/2000/svg" width="1120" height="586" viewBox="0 0 1120 586" font-family="-apple-system,Segoe UI,Helvetica,Arial,sans-serif">
  <defs>
    <radialGradient id="sky" cx="50%" cy="0%" r="100%">
      <stop offset="0%" stop-color="#0a0d1c"/>
      <stop offset="60%" stop-color="#060812"/>
    </radialGradient>
    <clipPath id="timelineFrame"><rect x="0" y="0" width="1120" height="586" rx="18"/></clipPath>
  </defs>
  <style>
    @keyframes twinkle { 0%, 100% { opacity: 0.55; transform: scale(0.88); } 50% { opacity: 1; transform: scale(1); } }
    .twinkle { transform-origin: center; transform-box: fill-box; animation: twinkle var(--dur, 3s) ease-in-out infinite; animation-delay: var(--delay, 0s); }
    @media (prefers-reduced-motion: reduce) { .twinkle { animation: none; } }
  </style>
  <g clip-path="url(#timelineFrame)">
    <rect x="0" y="0" width="1120" height="586" fill="url(#sky)"/>
    <circle cx="923.8" cy="428.4" r="1.5" fill="rgba(187, 214, 246,0.34)"/>
  <circle cx="457.8" cy="354.6" r="1.5" fill="rgba(250, 243, 226,0.14)"/>
  <circle cx="706.6" cy="507.5" r="1.0" fill="rgba(197, 219, 243,0.18)"/>
  <circle cx="135.6" cy="242.5" r="1.2" fill="rgba(235, 237, 230,0.31)"/>
  <circle cx="692.6" cy="189.3" r="1.5" fill="rgba(178, 210, 249,0.19)"/>
  <circle cx="834.5" cy="486.3" r="0.7" fill="rgba(220, 230, 235,0.38)"/>
  <circle cx="244.5" cy="571.2" r="1.4" fill="rgba(194, 217, 244,0.34)"/>
  <circle cx="127.8" cy="503.2" r="0.9" fill="rgba(209, 225, 239,0.13)"/>
  <circle cx="461.3" cy="388.7" r="0.7" fill="rgba(161, 202, 254,0.36)"/>
  <circle cx="401.2" cy="150.4" r="0.9" fill="rgba(253, 245, 225,0.35)"/>
  <circle cx="582.5" cy="150.5" r="1.0" fill="rgba(248, 243, 226,0.38)"/>
  <circle cx="556.4" cy="210.0" r="0.6" fill="rgba(159, 201, 255,0.25)"/>
  <circle cx="555.5" cy="535.8" r="1.2" fill="rgba(165, 204, 253,0.28)"/>
  <circle cx="643.0" cy="240.3" r="1.0" fill="rgba(210, 225, 239,0.20)"/>
  <circle cx="306.3" cy="173.0" r="1.2" fill="rgba(193, 217, 244,0.18)"/>
  <circle cx="426.7" cy="212.2" r="0.8" fill="rgba(185, 213, 247,0.18)"/>
  <circle cx="343.5" cy="565.8" r="1.4" fill="rgba(166, 204, 253,0.30)"/>
  <circle cx="790.8" cy="135.9" r="1.2" fill="rgba(160, 202, 255,0.25)"/>
  <circle cx="639.3" cy="317.3" r="0.7" fill="rgba(165, 204, 253,0.35)"/>
  <circle cx="157.2" cy="20.0" r="0.8" fill="rgba(194, 218, 244,0.29)"/>
  <circle cx="334.1" cy="16.3" r="0.7" fill="rgba(165, 204, 253,0.27)"/>
  <circle cx="801.5" cy="356.9" r="1.3" fill="rgba(214, 227, 237,0.30)"/>
  <circle cx="958.6" cy="358.0" r="1.0" fill="rgba(254, 246, 224,0.22)"/>
  <circle cx="799.7" cy="330.0" r="1.1" fill="rgba(167, 205, 253,0.13)"/>
  <circle cx="369.8" cy="311.4" r="1.3" fill="rgba(251, 244, 225,0.20)"/>
  <circle cx="839.9" cy="564.4" r="0.9" fill="rgba(171, 207, 251,0.39)"/>
  <circle cx="85.4" cy="354.2" r="0.9" fill="rgba(199, 220, 242,0.18)"/>
  <circle cx="648.4" cy="491.9" r="1.2" fill="rgba(197, 219, 243,0.38)"/>
  <circle cx="572.5" cy="457.6" r="0.6" fill="rgba(200, 220, 242,0.15)"/>
  <circle cx="724.9" cy="18.0" r="1.0" fill="rgba(211, 226, 238,0.36)"/>
  
    <line x1="50" y1="54" x2="50" y2="420" stroke="rgba(140,150,175,0.4)" stroke-width="1" stroke-dasharray="2 4"/>
    <g class="twinkle" style="--dur:2.8s;--delay:0.0s">
      <circle cx="50" cy="54" r="11" fill="rgba(159, 201, 255,0.28)"/>
      <path d="M 50.0 48.5 Q 50.9 53.1 55.5 54.0 Q 50.9 54.9 50.0 59.5 Q 49.1 54.9 44.5 54.0 Q 49.1 53.1 50.0 48.5 Z" fill="rgb(159, 201, 255)"/>
    </g>
  <text x="92" y="42" font-size="20" font-weight="600" fill="#e8ecf5">AI Engineering Intern <tspan fill="#6f7d99" font-weight="400">&#183; IBM</tspan></text>
  <text x="92" y="66" font-size="14" fill="#5b6b86" font-family="ui-monospace,SFMono-Regular,Menlo,Consolas,monospace">May 2026 – Present</text>
  <text x="92" y="92" font-size="16" font-style="italic" fill="#8a97b8">Mapping business goals into strategic opportunities through agent workflows and context-aware systems.</text>
  <g class="twinkle" style="--dur:3.2s;--delay:-0.6s">
      <circle cx="50" cy="176" r="11" fill="rgba(191, 216, 245,0.28)"/>
      <path d="M 50.0 170.5 Q 50.9 175.1 55.5 176.0 Q 50.9 176.9 50.0 181.5 Q 49.1 176.9 44.5 176.0 Q 49.1 175.1 50.0 170.5 Z" fill="rgb(191, 216, 245)"/>
    </g>
  <text x="92" y="164" font-size="20" font-weight="600" fill="#e8ecf5">AI/ML Engineering Intern <tspan fill="#6f7d99" font-weight="400">&#183; Alphavima Technologies</tspan></text>
  <text x="92" y="188" font-size="14" fill="#5b6b86" font-family="ui-monospace,SFMono-Regular,Menlo,Consolas,monospace">May 2025 – Apr 2026</text>
  <text x="92" y="214" font-size="16" font-style="italic" fill="#8a97b8">Built semantic recommendation, demand forecasting, and natural-language-to-SQL systems for enterprise CRM tooling.</text>
  <g class="twinkle" style="--dur:3.6s;--delay:-1.2s">
      <circle cx="50" cy="298" r="11" fill="rgba(223, 231, 234,0.28)"/>
      <path d="M 50.0 292.5 Q 50.9 297.1 55.5 298.0 Q 50.9 298.9 50.0 303.5 Q 49.1 298.9 44.5 298.0 Q 49.1 297.1 50.0 292.5 Z" fill="rgb(223, 231, 234)"/>
    </g>
  <text x="92" y="286" font-size="20" font-weight="600" fill="#e8ecf5">Software Developer Intern <tspan fill="#6f7d99" font-weight="400">&#183; Alphavima Technologies</tspan></text>
  <text x="92" y="310" font-size="14" fill="#5b6b86" font-family="ui-monospace,SFMono-Regular,Menlo,Consolas,monospace">May 2024 – Aug 2024</text>
  <text x="92" y="336" font-size="16" font-style="italic" fill="#8a97b8">Shipped two enterprise mobile apps end to end on the Microsoft Power Platform.</text>
  <g class="twinkle" style="--dur:4.0s;--delay:-1.8s">
      <circle cx="50" cy="420" r="11" fill="rgba(255, 246, 224,0.28)"/>
      <path d="M 50.0 414.5 Q 50.9 419.1 55.5 420.0 Q 50.9 420.9 50.0 425.5 Q 49.1 420.9 44.5 420.0 Q 49.1 419.1 50.0 414.5 Z" fill="rgb(255, 246, 224)"/>
    </g>
  <text x="92" y="408" font-size="20" font-weight="600" fill="#e8ecf5">Software Developer Intern <tspan fill="#6f7d99" font-weight="400">&#183; The Home Depot Canada</tspan></text>
  <text x="92" y="432" font-size="14" fill="#5b6b86" font-family="ui-monospace,SFMono-Regular,Menlo,Consolas,monospace">May 2023 – Aug 2023</text>
  <text x="92" y="458" font-size="16" font-style="italic" fill="#8a97b8">Strengthened delivery validation and order-tracking systems.</text>
  </g>
</svg>
