<svg xmlns="http://www.w3.org/2000/svg" width="1200" height="360" viewBox="0 0 1200 360" role="img" aria-labelledby="title desc">
  <title id="title">Hia Aggrawal — engineer and creative builder</title>
  <desc id="desc">An editorial field-note banner with a small bee and a dotted flight path connecting ideas, systems, and people.</desc>
  <defs>
    <pattern id="grid" width="34" height="34" patternUnits="userSpaceOnUse">
      <path d="M34 0H0V34" fill="none" stroke="#17182c" stroke-opacity=".075"/>
    </pattern>
    <filter id="shadow" x="-30%" y="-30%" width="160%" height="160%">
      <feDropShadow dx="4" dy="5" stdDeviation="0" flood-color="#17182c" flood-opacity=".9"/>
    </filter>
  </defs>
  <rect width="1200" height="360" rx="18" fill="#f2eadb"/>
  <rect width="1200" height="360" rx="18" fill="url(#grid)"/>
  <path d="M-10 296C168 186 187 370 354 240S579 70 716 173s204 58 284-13 145-73 220-18" fill="none" stroke="#17182c" stroke-width="2" stroke-linecap="round" stroke-dasharray="3 11" opacity=".75"/>
  <circle cx="353" cy="240" r="9" fill="#c9486f"/>
  <circle cx="716" cy="173" r="9" fill="#587354"/>
  <text x="72" y="61" fill="#76243a" font-family="monospace" font-size="12" letter-spacing="3">FIELD NOTES / A–001</text>
  <text x="72" y="151" fill="#17182c" font-family="Georgia,serif" font-size="68" font-weight="700">Hia Aggrawal</text>
  <text x="75" y="194" fill="#17182c" font-family="Arial,sans-serif" font-size="19" letter-spacing="1">ENGINEERING IDEAS INTO THOUGHTFUL SYSTEMS</text>
  <g transform="translate(78 236)">
    <rect width="124" height="38" rx="19" fill="#17182c"/>
    <text x="62" y="24" fill="#f2eadb" text-anchor="middle" font-family="monospace" font-size="11">AI + SYSTEMS</text>
    <rect x="138" width="104" height="38" rx="19" fill="#e8c83f" stroke="#17182c"/>
    <text x="190" y="24" fill="#17182c" text-anchor="middle" font-family="monospace" font-size="11">PRODUCT</text>
    <rect x="256" width="112" height="38" rx="19" fill="#c9486f" stroke="#17182c"/>
    <text x="312" y="24" fill="#fff9e9" text-anchor="middle" font-family="monospace" font-size="11">CREATIVITY</text>
  </g>
  <g transform="translate(1002 128) rotate(-12)" filter="url(#shadow)">
    <ellipse cx="41" cy="17" rx="22" ry="14" fill="#fff9e9" fill-opacity=".78" stroke="#17182c" stroke-width="2"/>
    <ellipse cx="41" cy="55" rx="22" ry="14" fill="#fff9e9" fill-opacity=".78" stroke="#17182c" stroke-width="2"/>
    <path d="M25 36c0-15 13-23 30-19 13 2 24 11 25 19-1 9-12 17-25 20-17 4-30-5-30-20Z" fill="#e8c83f" stroke="#17182c" stroke-width="3"/>
    <path d="M45 18c-6 11-6 26 0 37M59 20c-6 10-6 22 0 32" fill="none" stroke="#17182c" stroke-width="3"/>
    <circle cx="24" cy="36" r="12" fill="#17182c"/>
    <path d="M18 28c-6-10-12-7-13-14M18 44C12 54 6 51 5 59" fill="none" stroke="#17182c" stroke-width="2.5" stroke-linecap="round"/>
  </g>
  <text x="1118" y="320" text-anchor="end" fill="#17182c" font-family="Georgia,serif" font-size="16" font-style="italic">observe · connect · build</text>
</svg>
