<svg xmlns="http://www.w3.org/2000/svg" width="1120" height="260" viewBox="0 0 1120 260" font-family="-apple-system,Segoe UI,Helvetica,Arial,sans-serif">
  <defs>
    <radialGradient id="sky" cx="50%" cy="0%" r="100%">
      <stop offset="0%" stop-color="#0a0d1c"/>
      <stop offset="60%" stop-color="#060812"/>
    </radialGradient>
    <radialGradient id="heroGlow"><stop offset="0%" stop-color="rgb(231, 235, 232)" stop-opacity="0.55"/><stop offset="100%" stop-color="rgb(231, 235, 232)" stop-opacity="0"/></radialGradient>
    <radialGradient id="moon" cx="35%" cy="35%" r="65%">
      <stop offset="0%" stop-color="#f5f3ea"/>
      <stop offset="100%" stop-color="#c9c6ba"/>
    </radialGradient>
  </defs>
  <style>
    @keyframes twinkle { 0%, 100% { opacity: 0.5; transform: scale(0.9); } 50% { opacity: 1; transform: scale(1); } }
    .twinkle { transform-origin: center; transform-box: fill-box; animation: twinkle 3.4s ease-in-out infinite; }
    @media (prefers-reduced-motion: reduce) { .twinkle { animation: none; } }
  </style>
  <rect x="0" y="0" width="1120" height="260" fill="url(#sky)"/>
  <circle cx="725.2" cy="38.2" r="1.0" fill="rgba(243, 240, 228,0.18)"/>
  <circle cx="64.2" cy="68.8" r="0.8" fill="rgba(246, 242, 227,0.41)"/>
  <circle cx="471.7" cy="135.6" r="0.7" fill="rgba(192, 216, 244,0.23)"/>
  <circle cx="338.7" cy="156.7" r="1.2" fill="rgba(213, 227, 237,0.29)"/>
  <circle cx="744.0" cy="51.3" r="1.4" fill="rgba(199, 220, 242,0.39)"/>
  <circle cx="540.0" cy="160.4" r="1.2" fill="rgba(164, 204, 253,0.42)"/>
  <circle cx="528.6" cy="95.1" r="1.0" fill="rgba(196, 218, 243,0.23)"/>
  <circle cx="718.5" cy="73.3" r="0.9" fill="rgba(254, 246, 224,0.27)"/>
  <circle cx="887.2" cy="115.4" r="1.2" fill="rgba(196, 218, 243,0.41)"/>
  <circle cx="268.1" cy="41.7" r="1.0" fill="rgba(172, 207, 251,0.16)"/>
  <circle cx="344.3" cy="79.3" r="0.5" fill="rgba(201, 221, 241,0.16)"/>
  <circle cx="147.6" cy="42.0" r="1.3" fill="rgba(253, 245, 225,0.17)"/>
  <circle cx="813.8" cy="30.2" r="1.3" fill="rgba(203, 222, 241,0.23)"/>
  <circle cx="219.7" cy="75.2" r="0.6" fill="rgba(193, 217, 244,0.19)"/>
  <circle cx="234.0" cy="65.5" r="0.8" fill="rgba(225, 232, 234,0.25)"/>
  <circle cx="338.0" cy="25.4" r="1.3" fill="rgba(249, 243, 226,0.30)"/>
  <circle cx="273.1" cy="26.3" r="1.2" fill="rgba(191, 216, 245,0.17)"/>
  <circle cx="852.7" cy="58.4" r="1.3" fill="rgba(189, 215, 245,0.37)"/>
  <circle cx="733.5" cy="81.1" r="1.4" fill="rgba(162, 203, 254,0.37)"/>
  <circle cx="1040.2" cy="64.2" r="0.8" fill="rgba(188, 215, 246,0.29)"/>
  <circle cx="550.9" cy="7.3" r="1.0" fill="rgba(201, 221, 241,0.19)"/>
  <circle cx="225.4" cy="66.5" r="0.6" fill="rgba(196, 219, 243,0.18)"/>
  <circle cx="593.0" cy="54.1" r="1.3" fill="rgba(248, 243, 226,0.44)"/>
  <circle cx="956.0" cy="46.0" r="0.7" fill="rgba(201, 220, 242,0.17)"/>
  <circle cx="631.9" cy="0.4" r="0.8" fill="rgba(202, 221, 241,0.33)"/>
  <circle cx="767.5" cy="50.6" r="0.7" fill="rgba(251, 244, 225,0.26)"/>
  
  <circle cx="1040" cy="54" r="20" fill="url(#moon)" opacity="0.9"/>
  <g class="twinkle">
    <circle cx="980" cy="46" r="8.0" fill="url(#heroGlow)"/>
    <path d="M 980.0 41.0 Q 980.8 45.2 985.0 46.0 Q 980.8 46.8 980.0 51.0 Q 979.2 46.8 975.0 46.0 Q 979.2 45.2 980.0 41.0 Z" fill="rgb(231, 235, 232)"/>
  </g>
  <path d="M0 260 L0 210 Q 201.6 188 118 198 L 138 200 A 30 30 0 0 1 198 200 L 228 196 Q 616 206 1120 214 L 1120 260 Z" fill="#03040a" opacity="0.9"/>
  <rect x="165" y="164" width="6" height="10" fill="#03040a" opacity="0.9"/>
  <text x="60" y="108" font-size="30" font-weight="600" fill="#e8ecf5" letter-spacing="0.2">Hia Aggrawal</text>
</svg>
